<?xml version="1.0" standalone="no"?>
<!DOCTYPE svg PUBLIC "-//W3C//DTD SVG 20010904//EN"
 "http://www.w3.org/TR/2001/REC-SVG-20010904/DTD/svg10.dtd">
<svg version="1.0" xmlns="http://www.w3.org/2000/svg"
 width="180pt" height="180pt" viewBox="0 0 500.000000 500.000000"
 preserveAspectRatio="xMidYMid meet">

<g transform="translate(0.000000,500.000000) scale(0.100000,-0.100000)"
fill="white" stroke="none" width="200px" height="200px">
<path d="M2790 3620 l-24 -51 -44 43 -44 43 7 -50 c9 -72 16 -95 26 -95 5 0 9
14 9 32 l0 31 25 -23 c14 -13 26 -22 28 -19 2 2 9 18 17 34 l13 30 6 -29 c3
-16 12 -31 20 -34 11 -4 12 6 6 49 -13 92 -18 97 -45 39z"/>
<path d="M2936 3648 c-3 -13 -6 -44 -6 -70 0 -36 4 -48 15 -48 12 0 15 14 15
70 0 69 -12 92 -24 48z"/>
<path d="M3066 3623 c-10 -66 -7 -92 13 -103 51 -27 87 1 97 73 7 52 -11 68
-22 20 -12 -57 -23 -74 -47 -71 -24 3 -26 15 -12 81 6 29 4 37 -8 37 -9 0 -17
-14 -21 -37z"/>
<path d="M2520 3594 c-19 -8 -35 -16 -37 -18 -3 -2 45 -117 51 -123 7 -8 86
32 86 44 0 17 -4 16 -40 -2 -21 -11 -31 -12 -36 -3 -7 10 15 33 39 41 6 2 7 9
3 15 -5 9 -13 9 -26 2 -26 -14 -40 -12 -40 5 0 8 11 17 25 21 14 3 25 12 25
20 0 17 -6 17 -50 -2z"/>
<path d="M3266 3534 c-17 -37 -24 -60 -17 -67 6 -6 14 1 24 19 l15 28 7 -32
c8 -37 7 -37 46 -16 l30 15 -15 -30 c-11 -20 -12 -32 -5 -36 6 -4 12 -5 13 -4
6 7 56 108 56 114 0 3 -22 -6 -49 -19 l-49 -25 -6 31 c-3 17 -6 41 -6 54 0 38
-14 28 -44 -32z"/>
<path d="M2330 3483 c-14 -9 -26 -17 -28 -19 -2 -1 14 -26 34 -56 21 -29 39
-55 40 -57 2 -1 7 0 13 4 8 4 8 12 0 26 -14 27 -5 35 23 22 24 -10 48 -7 48 7
0 4 -11 11 -25 14 -18 5 -25 13 -25 29 0 46 -37 60 -80 30z m55 -23 c4 -6 1
-18 -6 -26 -11 -13 -14 -13 -27 0 -8 8 -11 19 -8 25 9 14 33 14 41 1z"/>
<path d="M2179 3344 l-24 -26 50 -44 c27 -24 53 -44 57 -44 12 0 9 25 -4 38
-9 9 -9 15 0 24 7 7 12 21 12 33 0 49 -52 60 -91 19z m61 -18 c0 -8 -5 -18
-10 -21 -13 -8 -42 14 -34 26 9 15 44 10 44 -5z"/>
<path d="M3570 3330 c-30 -30 -25 -74 11 -120 30 -37 57 -45 45 -14 -3 8 1 14
9 14 7 0 23 12 35 27 52 66 -41 152 -100 93z m84 -32 c12 -20 2 -44 -27 -62
-13 -8 -22 -6 -39 11 -19 19 -20 26 -10 48 9 20 18 26 39 23 14 -2 31 -11 37
-20z"/>
<path d="M2947 3169 c4 -13 8 -18 11 -10 2 7 -1 18 -6 23 -8 8 -9 4 -5 -13z"/>
<path d="M3727 3144 c-53 -27 -62 -42 -53 -79 10 -41 43 -50 99 -26 26 11 47
27 47 35 0 12 -8 11 -46 -5 -51 -23 -74 -20 -74 10 0 14 14 28 45 43 28 14 42
27 37 34 -5 9 -21 5 -55 -12z"/>
<path d="M2958 3110 c2 -16 6 -30 8 -30 2 0 4 14 4 30 0 17 -4 30 -8 30 -5 0
-7 -13 -4 -30z"/>
<path d="M2864 3059 c13 -36 -7 -62 -41 -53 -18 5 -20 10 -13 30 13 34 5 30
-20 -11 -21 -34 -21 -37 -5 -55 13 -15 29 -19 66 -17 29 1 49 7 49 13 0 7 11
19 24 27 18 13 24 25 24 54 0 21 -3 33 -5 26 -3 -9 -14 -9 -47 1 l-43 13 11
-28z m56 -45 c0 -8 -4 -12 -10 -9 -5 3 -10 10 -10 16 0 5 5 9 10 9 6 0 10 -7
10 -16z m-100 -44 c0 -5 -2 -10 -4 -10 -3 0 -8 5 -11 10 -3 6 -1 10 4 10 6 0
11 -4 11 -10z"/>
<path d="M2846 3055 c4 -8 0 -23 -7 -33 -13 -15 -12 -16 4 -3 19 15 22 36 7
46 -6 3 -7 -1 -4 -10z"/>
<path d="M3730 2923 c0 -7 6 -13 14 -13 21 0 29 -35 14 -59 -23 -37 0 -33 61
10 33 23 59 44 58 46 -2 1 -36 9 -75 16 -60 12 -72 12 -72 0z m85 -33 c-3 -5
-10 -10 -16 -10 -5 0 -9 5 -9 10 0 6 7 10 16 10 8 0 12 -4 9 -10z"/>
<path d="M2990 2907 c0 -13 -3 -27 -7 -31 -5 -4 -8 -18 -8 -29 0 -16 -6 -22
-22 -21 -12 0 -20 -3 -17 -8 9 -14 -24 -20 -46 -8 -18 10 -21 9 -18 -2 7 -21
56 -40 88 -33 49 11 71 67 54 133 -8 29 -24 28 -24 -1z"/>
<path d="M2688 2853 c6 -2 18 -2 25 0 6 3 1 5 -13 5 -14 0 -19 -2 -12 -5z"/>
<path d="M3059 2828 c-1 -7 -1 -16 0 -20 0 -5 -3 -8 -9 -8 -5 0 -10 -12 -9
-27 1 -26 1 -27 7 -5 4 13 12 23 17 24 6 0 9 4 8 9 -5 17 16 9 30 -11 18 -26
64 -36 64 -14 0 8 -22 26 -48 40 -56 28 -59 28 -60 12z m89 -37 c11 -7 10 -9
-3 -14 -9 -4 -14 -3 -10 2 3 5 -1 12 -7 14 -7 3 -8 6 -3 6 6 0 16 -3 23 -8z"/>
<path d="M986 2772 c-2 -9 -7 -33 -11 -52 -3 -19 -18 -70 -32 -113 -20 -61
-30 -80 -49 -87 -21 -8 -23 -12 -12 -29 10 -16 5 -36 -29 -120 l-40 -100 27
-26 c34 -32 48 -32 56 3 12 56 56 192 68 206 7 11 37 18 94 22 45 4 82 5 82 3
0 -2 -7 -29 -15 -59 -23 -85 -20 -144 10 -177 21 -24 26 -26 35 -13 5 8 10 28
10 45 0 16 10 69 22 118 16 67 26 91 40 95 15 3 17 11 12 36 -6 34 26 120 66
176 l21 30 -33 20 c-18 11 -37 20 -41 20 -7 0 -65 -116 -95 -191 -10 -24 -17
-27 -87 -34 -42 -4 -78 -5 -81 -3 -2 2 15 43 38 91 41 86 41 87 22 108 -10 12
-31 27 -46 35 -24 12 -27 12 -32 -4z"/>
<path d="M2854 2762 c-6 -4 -15 -23 -18 -42 -6 -27 -5 -32 4 -20 10 12 11 11
7 -7 -3 -13 -1 -23 4 -23 5 0 10 15 10 33 l2 32 7 -35 7 -35 2 43 c1 31 -2 41
-11 36 -8 -5 -9 -2 -5 9 7 19 7 20 -9 9z"/>
<path d="M3020 2742 c0 -15 -6 -19 -26 -16 -14 1 -27 -3 -30 -11 -3 -7 -18
-18 -33 -25 -16 -6 -34 -23 -40 -38 l-12 -27 21 25 20 25 0 -31 c0 -31 30 -58
38 -35 2 6 12 11 23 11 10 0 19 7 19 15 0 12 -4 13 -18 6 -25 -13 -46 2 -37
28 7 23 45 49 45 31 0 -17 29 -11 42 9 9 15 15 17 25 9 8 -7 13 -7 13 0 0 5
-11 17 -25 26 -24 16 -25 15 -25 -2z"/>
<path d="M3152 2733 c-6 -2 -9 -10 -6 -16 5 -8 2 -8 -7 1 -7 6 -22 12 -33 11
-12 0 -15 -3 -8 -6 10 -4 10 -8 2 -18 -7 -8 -10 -24 -8 -35 3 -21 4 -21 40 7
21 16 35 34 33 42 -4 10 2 9 22 -4 l28 -18 -19 21 c-20 23 -23 24 -44 15z"/>
<path d="M3760 2695 c0 -55 27 -65 32 -12 3 31 4 32 56 35 77 4 63 22 -18 22
l-70 0 0 -45z"/>
<path d="M3281 2716 c-10 -12 -8 -13 8 -9 12 3 18 9 15 14 -7 12 -10 11 -23
-5z"/>
<path d="M3327 2689 c4 -13 8 -18 11 -10 2 7 -1 18 -6 23 -8 8 -9 4 -5 -13z"/>
<path d="M3201 2673 c48 -55 81 -83 96 -83 13 0 13 -2 2 -17 -13 -16 -12 -17
3 -4 10 7 16 17 13 21 -3 5 -1 11 4 14 5 3 13 -6 19 -22 5 -15 24 -36 42 -46
18 -10 30 -14 26 -7 -4 6 -2 11 4 11 6 0 8 5 4 12 -4 7 -3 8 5 4 6 -4 8 -12 5
-18 -4 -6 0 -14 7 -19 20 -12 52 -11 44 2 -4 6 -13 8 -21 5 -8 -3 -11 0 -8 9
3 7 -4 18 -15 24 -28 15 -41 14 -35 -4 4 -8 1 -15 -5 -15 -7 0 -15 8 -18 17
-4 9 -15 27 -26 39 -16 18 -23 20 -37 12 -14 -9 -22 -8 -35 5 -15 16 -12 22 8
18 5 -1 6 3 2 9 -3 6 -18 8 -33 6 -25 -5 -25 -4 -9 8 10 8 14 17 8 20 -5 3
-11 0 -14 -6 -3 -9 -11 -6 -26 10 -31 31 -39 28 -10 -5z"/>
<path d="M3055 2670 c-4 -6 -10 -8 -14 -6 -4 3 -13 1 -21 -4 -23 -14 11 -23
41 -11 13 5 18 10 11 10 -7 1 -10 6 -7 11 3 6 4 10 1 10 -3 0 -8 -5 -11 -10z"/>
<path d="M3375 2650 c10 -11 20 -20 23 -20 3 0 -3 9 -13 20 -10 11 -20 20 -23
20 -3 0 3 -9 13 -20z"/>
<path d="M3170 2642 c6 -13 9 -28 6 -35 -2 -7 -8 -2 -11 11 -11 33 -25 27 -18
-8 3 -20 1 -30 -6 -30 -7 0 -10 -4 -7 -9 4 -5 -3 -7 -15 -4 -19 5 -20 4 -10
-16 8 -14 8 -21 1 -21 -5 0 -10 5 -10 10 0 6 -4 10 -10 10 -16 0 -11 -17 7
-24 10 -4 22 -1 28 7 5 7 18 16 28 20 10 4 15 12 12 17 -4 6 -3 10 2 9 18 -3
47 3 36 8 -7 2 -13 12 -13 22 0 9 -7 26 -16 37 -14 18 -15 18 -4 -4z"/>
<path d="M2881 2613 c-1 -6 -4 -20 -7 -30 -5 -17 -5 -17 6 0 6 10 9 23 6 30
-3 9 -5 9 -5 0z"/>
<path d="M3082 2604 c-8 -8 -9 -14 -2 -15 5 -1 16 -2 23 -3 12 -1 37 17 37 28
0 3 -7 6 -15 6 -8 0 -15 -6 -15 -12 0 -10 -2 -10 -8 -2 -5 9 -11 8 -20 -2z"/>
<path d="M1694 2564 c-36 -62 -83 -185 -90 -237 -6 -42 7 -87 25 -87 5 0 34
33 65 74 56 73 134 152 142 143 2 -2 -3 -24 -12 -49 -34 -100 3 -168 75 -139
37 16 40 31 6 31 -20 0 -25 5 -25 25 0 33 36 126 66 170 29 44 20 65 -29 65
-25 0 -47 -17 -129 -99 -54 -55 -98 -97 -98 -93 0 4 20 42 45 86 25 43 45 84
45 91 0 15 -38 65 -50 65 -5 0 -21 -21 -36 -46z"/>
<path d="M1408 2567 c-57 -44 -108 -141 -108 -207 0 -38 6 -55 26 -79 33 -39
71 -41 131 -5 57 33 99 92 114 159 14 64 6 103 -24 114 -12 5 -31 18 -41 30
-26 29 -47 26 -98 -12z m113 -124 c-14 -73 -50 -127 -101 -153 l-40 -21 -10
26 c-23 61 46 190 125 233 31 17 40 -15 26 -85z"/>
<path d="M2109 2571 c-55 -34 -104 -109 -119 -178 -10 -44 -9 -58 5 -87 22
-45 72 -70 111 -55 41 15 114 77 114 97 0 12 -8 8 -32 -15 -59 -56 -109 -69
-128 -34 -19 36 -11 50 44 76 71 34 122 90 131 145 6 38 5 45 -16 61 -33 26
-58 23 -110 -10z m81 -53 c0 -25 -40 -78 -81 -108 -23 -16 -44 -28 -47 -26 -8
8 52 108 76 127 28 22 52 25 52 7z"/>
<path d="M2365 2569 c-37 -45 -73 -119 -91 -190 -14 -55 -14 -62 0 -84 17 -26
56 -41 80 -32 8 3 34 30 57 59 38 48 41 50 35 23 -3 -16 -24 -67 -46 -112 -64
-129 -155 -194 -232 -165 -39 14 -36 -4 5 -28 38 -24 97 -26 141 -5 72 34 157
153 197 274 12 36 39 108 60 159 l38 93 -24 11 c-13 6 -30 8 -37 5 -7 -2 -35
-47 -63 -98 -52 -96 -127 -190 -141 -176 -17 16 40 168 93 250 16 24 16 29 3
37 -26 17 -48 11 -75 -21z"/>
<path d="M3050 2584 c0 -17 17 -36 24 -26 3 5 -1 15 -9 22 -8 7 -15 9 -15 4z"/>
<path d="M2940 2566 c0 -1 5 -17 11 -35 12 -34 35 -41 42 -13 4 16 5 16 6 0 1
-14 10 -18 44 -17 36 0 39 2 19 10 -13 5 -27 7 -31 4 -5 -2 -6 6 -4 20 4 20 2
23 -21 21 -14 -2 -26 1 -26 5 0 5 -9 9 -20 9 -11 0 -20 -2 -20 -4z"/>
<path d="M3755 2561 c-11 -11 -3 -20 23 -25 89 -17 112 -18 112 -4 0 10 -20
18 -65 24 -36 6 -68 8 -70 5z"/>
<path d="M3188 2537 c-3 -19 -2 -25 4 -19 6 6 8 18 6 28 -3 14 -5 12 -10 -9z"/>
<path d="M2837 2503 c-14 -49 -10 -85 5 -44 5 13 14 21 21 18 8 -3 14 1 14 8
0 7 -7 11 -15 7 -12 -4 -14 1 -9 26 10 48 0 38 -16 -15z"/>
<path d="M2896 2527 c3 -10 9 -15 12 -12 3 3 0 11 -7 18 -10 9 -11 8 -5 -6z"/>
<path d="M2770 2496 c0 -31 6 -34 13 -6 3 11 1 23 -4 26 -5 3 -9 -6 -9 -20z"/>
<path d="M2920 2496 c0 -2 8 -10 18 -17 15 -13 16 -12 3 4 -13 16 -21 21 -21
13z"/>
<path d="M3000 2451 c0 -14 21 -26 45 -26 11 0 26 -4 32 -8 9 -6 11 -3 7 7 -6
16 -17 20 -41 17 -6 -1 -14 3 -18 9 -8 13 -25 13 -25 1z"/>
<path d="M3095 2430 c4 -6 11 -8 16 -5 14 9 11 15 -7 15 -8 0 -12 -5 -9 -10z"/>
<path d="M3160 2425 c-7 -8 -23 -15 -37 -15 -13 0 -22 -4 -19 -9 8 -13 42 -2
62 20 9 10 15 19 12 19 -3 0 -11 -7 -18 -15z"/>
<path d="M3720 2417 c0 -10 19 -22 50 -32 37 -12 50 -22 50 -36 0 -34 18 -20
33 26 13 37 13 45 2 45 -7 0 -15 -5 -17 -12 -4 -11 -44 -4 -104 19 -8 3 -14
-1 -14 -10z"/>
<path d="M3074 2377 c39 -34 86 -45 86 -19 0 6 6 11 12 10 7 -2 14 7 16 20 4
23 3 23 -22 7 -14 -10 -23 -21 -20 -26 9 -15 -47 1 -81 23 -23 15 -21 11 9
-15z"/>
<path d="M2773 2360 c1 -22 3 -40 4 -40 6 0 32 64 28 68 -3 3 -5 2 -5 -3 0 -4
-6 -2 -14 4 -12 10 -14 5 -13 -29z"/>
<path d="M2889 2353 c-13 -16 -12 -17 4 -4 16 13 21 21 13 21 -2 0 -10 -8 -17
-17z"/>
<path d="M3647 2254 c-4 -4 2 -14 14 -22 11 -7 33 -35 49 -60 23 -37 30 -43
35 -30 4 9 0 27 -9 40 -23 33 -20 40 18 33 24 -5 35 -3 39 8 4 11 -6 16 -46
20 -29 3 -61 8 -72 12 -11 3 -24 3 -28 -1z"/>
<path d="M2736 2168 l-26 -23 40 -80 c22 -44 42 -97 46 -117 l6 -38 -31 16
c-37 18 -53 11 -106 -47 -69 -76 -109 -198 -83 -249 19 -36 78 -63 111 -51 68
26 150 158 169 273 9 51 9 82 -1 138 -13 72 -65 190 -87 197 -7 2 -23 -6 -38
-19z m54 -383 c-29 -97 -101 -194 -134 -182 -45 18 9 161 91 244 l48 48 3 -35
c2 -19 -2 -53 -8 -75z"/>
<path d="M1370 2109 c-118 -32 -137 -50 -105 -96 l15 -22 50 26 c28 14 53 24
55 21 8 -8 -21 -88 -96 -263 -68 -159 -69 -160 -50 -185 10 -14 27 -26 38 -28
16 -2 22 6 32 50 6 29 24 85 40 123 l28 70 62 -3 c51 -3 71 1 117 23 74 36
107 81 112 153 3 48 0 62 -19 86 -12 16 -37 35 -55 42 -38 16 -170 17 -224 3z
m247 -54 c30 -21 38 -66 18 -105 -11 -22 -33 -40 -70 -56 -55 -25 -155 -44
-155 -28 0 4 21 52 48 106 l47 98 45 0 c25 0 55 -7 67 -15z"/>
<path d="M3029 2064 c-14 -38 -12 -114 4 -114 7 0 30 21 51 46 l39 47 -24 18
c-39 30 -59 30 -70 3z"/>
<path d="M3172 1945 c-44 -37 -57 -75 -43 -129 18 -74 16 -80 -38 -103 -81
-34 -114 -108 -68 -151 29 -27 62 -28 104 -2 39 23 49 41 58 102 5 36 12 49
29 54 20 7 20 8 -4 14 -23 6 -25 10 -22 51 5 58 22 94 47 94 16 0 20 -6 17
-32 -3 -39 10 -43 26 -8 20 44 14 71 -23 104 -20 17 -40 31 -45 31 -4 0 -22
-11 -38 -25z m-30 -281 c-7 -35 -69 -101 -83 -87 -16 16 -3 47 33 82 39 38 57
40 50 5z"/>
<path d="M2042 1892 c-29 -67 -71 -198 -78 -243 -5 -31 -3 -39 14 -48 32 -17
39 -14 47 26 11 58 42 116 85 158 l40 39 31 -33 c40 -44 52 -31 55 59 3 91
-11 92 -90 4 -32 -36 -60 -63 -63 -60 -3 3 9 31 26 62 29 53 30 58 13 70 -35
27 -58 17 -80 -34z"/>
<path d="M3435 1926 c-44 -19 -111 -99 -129 -153 -32 -93 -15 -152 50 -179 31
-13 38 -12 72 5 46 24 108 86 93 95 -5 4 -13 0 -18 -7 -16 -26 -80 -67 -105
-67 -14 0 -29 7 -32 16 -15 39 -6 53 55 85 70 38 104 77 117 137 9 39 8 44
-15 62 -30 23 -46 24 -88 6z m55 -82 c-16 -40 -34 -63 -79 -95 -46 -34 -51
-27 -21 30 34 68 123 126 100 65z"/>
<path d="M1763 1911 c-33 -21 -85 -90 -109 -146 -20 -50 -18 -128 4 -148 37
-34 83 -13 132 61 l32 47 -7 -37 c-4 -21 -4 -49 -1 -63 5 -21 12 -25 42 -25
32 0 35 2 28 23 -13 37 -5 96 25 173 20 51 25 76 18 83 -24 24 -43 9 -81 -63
-75 -143 -146 -215 -146 -149 0 64 101 203 147 203 19 0 16 17 -7 40 -25 25
-37 25 -77 1z"/>
<path d="M2373 1911 c-33 -21 -85 -90 -109 -146 -20 -50 -18 -128 4 -148 37
-34 83 -13 132 61 l32 47 -7 -37 c-4 -21 -4 -49 -1 -63 5 -21 12 -25 42 -25
32 0 35 2 28 23 -13 37 -5 96 25 173 20 51 25 76 18 83 -24 24 -43 9 -81 -63
-75 -143 -146 -215 -146 -149 0 64 101 203 147 203 19 0 16 17 -7 40 -25 25
-37 25 -77 1z"/>
<path d="M2957 1882 c-25 -28 -44 -80 -58 -164 -12 -72 -11 -79 6 -98 10 -11
21 -20 24 -20 3 0 19 41 36 92 16 50 39 106 52 125 29 42 29 47 -2 67 -31 20
-38 20 -58 -2z"/>
</g>
</svg>
