<?xml version="1.0" standalone="no"?>
<!DOCTYPE svg PUBLIC "-//W3C//DTD SVG 20010904//EN"
 "http://www.w3.org/TR/2001/REC-SVG-20010904/DTD/svg10.dtd">
<svg version="1.0" xmlns="http://www.w3.org/2000/svg"
 width="500.000000pt" height="500.000000pt" viewBox="0 0 500.000000 500.000000"
 preserveAspectRatio="xMidYMid meet">

<g transform="translate(0.000000,500.000000) scale(0.100000,-0.100000)"
fill="#000000" stroke="none">
<path d="M0 2500 l0 -2500 2500 0 2500 0 0 2500 0 2500 -2500 0 -2500 0 0
-2500z m2835 1081 c6 -43 5 -53 -6 -49 -8 3 -17 18 -20 34 l-6 29 -13 -32
c-14 -39 -17 -40 -48 -10 l-24 22 4 -29 c1 -16 -2 -31 -8 -33 -13 -4 -19 16
-29 92 l-7 50 44 -43 44 -43 24 51 c27 58 32 53 45 -39z m125 19 c0 -56 -3
-70 -15 -70 -11 0 -15 13 -15 54 0 58 7 86 21 86 5 0 9 -31 9 -70z m140 47 c0
-6 -4 -27 -9 -45 -12 -41 -5 -62 20 -62 20 0 33 22 43 73 4 15 11 27 18 27 16
0 2 -90 -19 -112 -31 -35 -93 -15 -93 30 0 54 13 102 26 102 8 0 14 -6 14 -13z
m-530 -51 c0 -8 -11 -17 -25 -20 -14 -4 -25 -14 -25 -22 0 -11 6 -15 18 -11 9
2 23 6 31 8 25 7 22 -17 -4 -29 -54 -25 -19 -41 38 -17 12 5 17 3 17 -8 0 -13
-77 -53 -86 -44 -8 7 -55 120 -51 123 5 5 71 33 80 34 4 0 7 -6 7 -14z m740
-30 c0 -13 3 -38 6 -55 l7 -31 44 26 c25 14 47 24 49 21 4 -4 -40 -103 -52
-116 -1 -1 -7 0 -13 4 -7 4 -6 16 5 36 l15 30 -30 -15 c-39 -21 -38 -21 -46
16 l-7 32 -15 -28 c-10 -18 -18 -25 -24 -19 -7 7 0 30 17 67 30 60 44 70 44
32z m-912 -78 c7 -7 12 -22 12 -35 0 -16 7 -24 25 -29 14 -4 24 -11 22 -18 -4
-12 -17 -12 -56 0 -21 6 -23 5 -17 -12 12 -30 12 -36 1 -40 -9 -3 -91 104 -83
110 50 38 76 44 96 24z m-140 -130 c7 -7 12 -21 12 -33 0 -12 -5 -26 -12 -33
-9 -9 -9 -15 0 -24 13 -13 16 -38 4 -38 -4 0 -30 20 -57 44 l-50 44 24 26 c26
28 59 34 79 14z m1400 -25 c32 -27 37 -64 12 -96 -12 -15 -28 -27 -35 -27 -8
0 -12 -6 -9 -14 12 -31 -15 -23 -44 13 -42 52 -46 87 -12 121 25 25 61 26 88
3z m87 -211 c-31 -15 -45 -29 -45 -43 0 -29 21 -32 73 -10 40 17 47 18 47 5 0
-8 -20 -24 -46 -36 -37 -16 -51 -18 -70 -9 -24 11 -40 50 -31 76 9 22 100 66
109 51 5 -7 -9 -20 -37 -34z m131 -215 c2 -2 -24 -23 -57 -46 -61 -43 -84 -47
-61 -10 15 24 7 59 -14 59 -8 0 -14 6 -14 14 0 12 11 12 71 0 40 -7 73 -15 75
-17z m-2820 -158 l28 -29 -42 -87 c-23 -48 -40 -89 -38 -91 3 -2 39 -1 81 3
70 7 77 10 87 34 30 75 88 191 95 191 4 0 23 -9 41 -20 l33 -20 -21 -30 c-37
-52 -70 -138 -67 -177 1 -27 -2 -38 -13 -38 -16 0 -58 -145 -60 -205 0 -19 -5
-42 -10 -50 -9 -13 -14 -11 -35 13 -30 33 -33 92 -10 177 8 30 15 57 15 59 0
11 -166 -11 -175 -23 -10 -14 -53 -142 -72 -215 l-8 -34 -37 31 -36 32 41 101
c34 84 39 104 29 120 -11 17 -9 21 12 29 19 7 29 26 49 87 14 43 29 94 32 113
11 62 15 68 34 63 11 -3 31 -18 47 -34z m2844 -19 c0 -5 -15 -10 -32 -10 -60
0 -78 -10 -78 -41 0 -19 -5 -29 -15 -29 -11 0 -15 12 -15 45 l0 45 70 0 c40 0
70 -4 70 -10z m-2141 -146 c12 -15 21 -33 21 -41 0 -8 -20 -48 -45 -91 -25
-42 -45 -80 -45 -84 0 -3 44 38 98 93 82 82 104 99 129 99 49 0 58 -21 29 -65
-30 -44 -66 -137 -66 -170 0 -20 5 -25 25 -25 34 0 31 -15 -6 -31 -72 -29
-109 39 -75 139 9 25 14 47 13 49 -8 8 -90 -73 -142 -142 -32 -41 -61 -75 -66
-75 -18 0 -31 45 -25 87 11 80 101 283 126 283 5 0 18 -12 29 -26z m-253 -5
c10 -12 29 -25 41 -30 30 -11 38 -50 24 -114 -15 -67 -57 -126 -114 -159 -60
-36 -98 -34 -131 5 -20 24 -26 41 -26 79 0 66 51 163 108 207 51 38 72 41 98
12z m714 3 c19 -16 21 -24 15 -61 -9 -56 -59 -112 -131 -147 -58 -28 -59 -30
-44 -68 16 -44 62 -32 133 32 21 20 27 22 27 10 0 -20 -63 -76 -107 -95 -30
-12 -38 -12 -70 3 -76 36 -78 141 -5 245 38 55 100 99 138 99 12 0 32 -8 44
-18z m220 8 c13 -8 13 -13 -3 -37 -52 -80 -110 -234 -94 -249 15 -15 76 61
137 167 61 108 73 119 110 99 19 -10 19 -11 -1 -58 -12 -26 -38 -95 -59 -155
-47 -131 -82 -196 -137 -257 -71 -79 -153 -101 -220 -60 -41 24 -44 42 -5 28
49 -19 99 -2 154 53 48 48 109 159 124 224 l6 30 -17 -25 c-38 -53 -80 -90
-102 -90 -26 0 -73 41 -73 63 0 25 32 122 57 172 44 88 85 119 123 95z m1450
-57 c0 -16 -11 -16 -80 -3 -58 11 -65 14 -57 27 9 15 137 -8 137 -24z m-99
-124 c33 -10 43 -11 47 -1 2 7 10 12 17 12 11 0 11 -8 -2 -45 -15 -46 -33 -60
-33 -26 0 14 -13 24 -50 36 -31 10 -50 22 -50 32 0 9 6 13 14 10 8 -3 33 -11
57 -18z m-44 -166 c40 -4 50 -9 46 -20 -4 -11 -15 -14 -39 -10 -38 6 -41 1
-18 -31 9 -13 13 -31 9 -40 -5 -13 -12 -7 -35 30 -16 25 -38 53 -49 60 -25 17
-15 32 14 23 11 -4 43 -9 72 -12z m-929 -124 c44 -88 60 -178 45 -265 -21
-119 -101 -248 -170 -275 -33 -12 -92 15 -111 51 -26 51 14 173 83 249 53 58
69 65 106 47 l31 -16 -6 38 c-4 20 -24 73 -46 117 l-40 80 26 23 c15 13 31 21
38 20 6 -2 26 -33 44 -69z m-1231 -11 c84 -25 112 -135 54 -215 -44 -61 -122
-96 -202 -91 l-62 3 -28 -70 c-16 -38 -34 -94 -40 -123 -10 -44 -16 -52 -32
-50 -11 2 -28 14 -38 28 -19 25 -19 26 41 164 68 158 113 277 106 283 -2 3
-27 -7 -55 -21 l-51 -25 -15 22 c-27 39 -19 54 41 76 95 36 202 43 281 19z
m1512 -47 l24 -18 -39 -47 c-49 -59 -64 -59 -64 -2 0 90 23 109 79 67z m156
-122 c37 -33 43 -60 23 -104 -16 -35 -29 -31 -26 8 3 26 -1 32 -17 32 -25 0
-42 -36 -47 -94 -3 -41 -1 -46 22 -51 24 -6 24 -7 4 -14 -17 -5 -24 -18 -29
-54 -9 -61 -19 -79 -58 -102 -42 -26 -75 -25 -104 2 -46 43 -13 117 68 151
l51 22 -8 45 c-16 91 -11 119 29 156 20 19 41 34 47 34 5 0 25 -14 45 -31z
m-1120 -20 c3 -5 -1 -19 -9 -31 -8 -13 -22 -41 -31 -63 -15 -40 -15 -40 48 28
84 89 98 89 94 -3 -4 -90 -16 -103 -55 -60 l-30 32 -40 -36 c-43 -39 -76 -100
-87 -159 -4 -20 -12 -37 -17 -37 -21 0 -48 22 -48 39 0 32 49 188 79 256 l30
64 30 -10 c17 -6 33 -15 36 -20z m1388 1 c23 -18 24 -23 15 -62 -13 -60 -47
-99 -117 -137 -61 -32 -70 -46 -55 -85 12 -32 77 -12 123 38 13 14 28 23 33
20 14 -9 -50 -72 -94 -95 -34 -17 -41 -18 -72 -5 -65 27 -82 86 -50 179 27 79
117 165 175 167 9 0 28 -9 42 -20z m-1683 -10 c24 -24 26 -40 5 -40 -43 0
-145 -143 -145 -204 0 -65 72 9 146 150 38 72 57 87 81 63 8 -8 4 -28 -15 -72
-19 -47 -26 -80 -26 -134 l-1 -73 -32 0 c-27 0 -34 5 -39 25 -3 14 -4 40 0 58
l6 32 -22 -30 c-37 -49 -79 -85 -101 -85 -105 0 -54 237 67 311 39 24 51 24
76 -1z m610 0 c24 -24 26 -40 5 -40 -43 0 -145 -143 -145 -204 0 -65 72 9 146
150 38 72 57 87 81 63 8 -8 4 -28 -15 -72 -19 -47 -26 -80 -26 -134 l-1 -73
-32 0 c-27 0 -34 5 -39 25 -3 14 -4 40 0 58 l6 32 -22 -30 c-37 -49 -79 -85
-101 -85 -105 0 -54 237 67 311 39 24 51 24 76 -1z m565 -26 c31 -20 31 -25 3
-66 -13 -19 -36 -74 -52 -123 -16 -50 -31 -92 -33 -94 -1 -2 -12 4 -24 15 -18
16 -20 26 -15 74 7 74 31 152 57 184 24 30 31 32 64 10z"/>
<path d="M2345 3460 c-4 -7 -3 -16 3 -22 14 -14 45 -2 40 15 -6 16 -34 21 -43
7z"/>
<path d="M2196 3331 c-8 -12 21 -34 34 -26 17 11 11 35 -9 35 -11 0 -22 -4
-25 -9z"/>
<path d="M3578 3295 c-10 -22 -9 -29 10 -47 20 -20 22 -20 46 -4 42 27 29 76
-21 76 -15 0 -27 -9 -35 -25z"/>
<path d="M3790 2890 c0 -5 4 -10 9 -10 6 0 13 5 16 10 3 6 -1 10 -9 10 -9 0
-16 -4 -16 -10z"/>
<path d="M1495 2528 c-76 -41 -130 -138 -126 -225 1 -28 25 -30 67 -4 42 25
72 77 86 145 13 69 3 101 -27 84z"/>
<path d="M2132 2502 c-29 -27 -77 -110 -69 -118 8 -8 88 58 107 89 37 61 15
78 -38 29z"/>
<path d="M2747 1847 c-82 -83 -136 -226 -91 -244 49 -18 151 166 142 257 l-3
35 -48 -48z"/>
<path d="M1458 1971 c-27 -55 -48 -103 -48 -107 0 -14 102 6 156 30 120 55
106 176 -21 176 l-40 0 -47 -99z"/>
<path d="M3089 1651 c-38 -38 -48 -64 -30 -76 15 -9 59 36 76 78 20 49 4 48
-46 -2z"/>
<path d="M3440 1844 c-30 -25 -70 -91 -70 -114 0 -14 77 41 96 68 8 11 18 32
24 46 13 35 -8 35 -50 0z"/>
</g>
</svg>
